<mxfile host="app.diagrams.net" agent="Mozilla/5.0 (Windows NT 10.0; Win64; x64) AppleWebKit/537.36 (KHTML, like Gecko) Chrome/127.0.0.0 Safari/537.36 OPR/113.0.0.0" version="24.8.3" pages="2">
  <diagram name="DiagramaDeClasses" id="313pqmzSfyaB0K2LEME7">
    <mxGraphModel dx="1161" dy="695" grid="1" gridSize="10" guides="1" tooltips="1" connect="1" arrows="1" fold="1" page="1" pageScale="1" pageWidth="827" pageHeight="1169" math="0" shadow="0">
      <root>
        <mxCell id="0" />
        <mxCell id="1" parent="0" />
        <mxCell id="tAQrfMbxrseSOEJ2uUg4-1" value="Cliente" style="swimlane;fontStyle=1;align=center;verticalAlign=top;childLayout=stackLayout;horizontal=1;startSize=26;horizontalStack=0;resizeParent=1;resizeParentMax=0;resizeLast=0;collapsible=1;marginBottom=0;whiteSpace=wrap;html=1;" vertex="1" parent="1">
          <mxGeometry x="40" y="80" width="160" height="250" as="geometry" />
        </mxCell>
        <mxCell id="tAQrfMbxrseSOEJ2uUg4-2" value="- id: Long&lt;div&gt;- nome: String&lt;/div&gt;&lt;div&gt;- telefone: String&lt;/div&gt;&lt;div&gt;- rua: String&lt;/div&gt;&lt;div&gt;- bairro: String&lt;/div&gt;&lt;div&gt;- numeroCasa: Long&lt;/div&gt;&lt;div&gt;- pedidos: List&amp;lt;Pedido&amp;gt;&lt;/div&gt;" style="text;strokeColor=none;fillColor=none;align=left;verticalAlign=top;spacingLeft=4;spacingRight=4;overflow=hidden;rotatable=0;points=[[0,0.5],[1,0.5]];portConstraint=eastwest;whiteSpace=wrap;html=1;" vertex="1" parent="tAQrfMbxrseSOEJ2uUg4-1">
          <mxGeometry y="26" width="160" height="114" as="geometry" />
        </mxCell>
        <mxCell id="tAQrfMbxrseSOEJ2uUg4-3" value="" style="line;strokeWidth=1;fillColor=none;align=left;verticalAlign=middle;spacingTop=-1;spacingLeft=3;spacingRight=3;rotatable=0;labelPosition=right;points=[];portConstraint=eastwest;strokeColor=inherit;" vertex="1" parent="tAQrfMbxrseSOEJ2uUg4-1">
          <mxGeometry y="140" width="160" height="8" as="geometry" />
        </mxCell>
        <mxCell id="tAQrfMbxrseSOEJ2uUg4-4" value="+ getters()&lt;div&gt;+ setters()&lt;/div&gt;&lt;div&gt;+ constructor()&lt;/div&gt;&lt;div&gt;+ fazerPedido()&lt;/div&gt;&lt;div&gt;+ acompanharPedido()&lt;/div&gt;&lt;div&gt;+ efetuarPagamento()&lt;/div&gt;" style="text;strokeColor=none;fillColor=none;align=left;verticalAlign=top;spacingLeft=4;spacingRight=4;overflow=hidden;rotatable=0;points=[[0,0.5],[1,0.5]];portConstraint=eastwest;whiteSpace=wrap;html=1;" vertex="1" parent="tAQrfMbxrseSOEJ2uUg4-1">
          <mxGeometry y="148" width="160" height="102" as="geometry" />
        </mxCell>
        <mxCell id="XWT3WZr1Eq8tSHZP4D_R-6" style="rounded=0;orthogonalLoop=1;jettySize=auto;html=1;exitX=0;exitY=0.5;exitDx=0;exitDy=0;entryX=1;entryY=0.5;entryDx=0;entryDy=0;fontFamily=Helvetica;fontSize=12;fontColor=default;endArrow=none;endFill=0;" edge="1" parent="1" source="tAQrfMbxrseSOEJ2uUg4-6" target="tAQrfMbxrseSOEJ2uUg4-22">
          <mxGeometry relative="1" as="geometry" />
        </mxCell>
        <mxCell id="tAQrfMbxrseSOEJ2uUg4-5" value="Garcom" style="swimlane;fontStyle=1;align=center;verticalAlign=top;childLayout=stackLayout;horizontal=1;startSize=26;horizontalStack=0;resizeParent=1;resizeParentMax=0;resizeLast=0;collapsible=1;marginBottom=0;whiteSpace=wrap;html=1;" vertex="1" parent="1">
          <mxGeometry x="630" y="395" width="170" height="180" as="geometry" />
        </mxCell>
        <mxCell id="tAQrfMbxrseSOEJ2uUg4-6" value="- id: Long&lt;div&gt;- nome: String&lt;/div&gt;" style="text;strokeColor=none;fillColor=none;align=left;verticalAlign=top;spacingLeft=4;spacingRight=4;overflow=hidden;rotatable=0;points=[[0,0.5],[1,0.5]];portConstraint=eastwest;whiteSpace=wrap;html=1;" vertex="1" parent="tAQrfMbxrseSOEJ2uUg4-5">
          <mxGeometry y="26" width="170" height="44" as="geometry" />
        </mxCell>
        <mxCell id="tAQrfMbxrseSOEJ2uUg4-7" value="" style="line;strokeWidth=1;fillColor=none;align=left;verticalAlign=middle;spacingTop=-1;spacingLeft=3;spacingRight=3;rotatable=0;labelPosition=right;points=[];portConstraint=eastwest;strokeColor=inherit;" vertex="1" parent="tAQrfMbxrseSOEJ2uUg4-5">
          <mxGeometry y="70" width="170" height="8" as="geometry" />
        </mxCell>
        <mxCell id="tAQrfMbxrseSOEJ2uUg4-8" value="+ getters()&lt;div&gt;+ setters()&lt;/div&gt;&lt;div&gt;+ constructor()&lt;/div&gt;&lt;div&gt;+ anotarPedidoCliente()&lt;/div&gt;&lt;div&gt;+ entregarPedidoCozinheiro()&lt;/div&gt;&lt;div&gt;+ entregarPedidoCliente()&lt;/div&gt;" style="text;strokeColor=none;fillColor=none;align=left;verticalAlign=top;spacingLeft=4;spacingRight=4;overflow=hidden;rotatable=0;points=[[0,0.5],[1,0.5]];portConstraint=eastwest;whiteSpace=wrap;html=1;" vertex="1" parent="tAQrfMbxrseSOEJ2uUg4-5">
          <mxGeometry y="78" width="170" height="102" as="geometry" />
        </mxCell>
        <mxCell id="tAQrfMbxrseSOEJ2uUg4-9" value="Cozinheiro" style="swimlane;fontStyle=1;align=center;verticalAlign=top;childLayout=stackLayout;horizontal=1;startSize=26;horizontalStack=0;resizeParent=1;resizeParentMax=0;resizeLast=0;collapsible=1;marginBottom=0;whiteSpace=wrap;html=1;" vertex="1" parent="1">
          <mxGeometry x="40" y="395" width="160" height="170" as="geometry" />
        </mxCell>
        <mxCell id="tAQrfMbxrseSOEJ2uUg4-10" value="- id: Long&lt;div&gt;- nome: String&lt;/div&gt;" style="text;strokeColor=none;fillColor=none;align=left;verticalAlign=top;spacingLeft=4;spacingRight=4;overflow=hidden;rotatable=0;points=[[0,0.5],[1,0.5]];portConstraint=eastwest;whiteSpace=wrap;html=1;" vertex="1" parent="tAQrfMbxrseSOEJ2uUg4-9">
          <mxGeometry y="26" width="160" height="44" as="geometry" />
        </mxCell>
        <mxCell id="tAQrfMbxrseSOEJ2uUg4-11" value="" style="line;strokeWidth=1;fillColor=none;align=left;verticalAlign=middle;spacingTop=-1;spacingLeft=3;spacingRight=3;rotatable=0;labelPosition=right;points=[];portConstraint=eastwest;strokeColor=inherit;" vertex="1" parent="tAQrfMbxrseSOEJ2uUg4-9">
          <mxGeometry y="70" width="160" height="8" as="geometry" />
        </mxCell>
        <mxCell id="tAQrfMbxrseSOEJ2uUg4-12" value="+ getters()&lt;div&gt;+ setters()&lt;/div&gt;&lt;div&gt;+ constructor()&lt;/div&gt;&lt;div&gt;+ prepararPedidoCliente()&lt;/div&gt;&lt;div&gt;+ atualizarPedido()&lt;span style=&quot;background-color: initial;&quot;&gt;&amp;nbsp;&lt;/span&gt;&lt;/div&gt;" style="text;strokeColor=none;fillColor=none;align=left;verticalAlign=top;spacingLeft=4;spacingRight=4;overflow=hidden;rotatable=0;points=[[0,0.5],[1,0.5]];portConstraint=eastwest;whiteSpace=wrap;html=1;" vertex="1" parent="tAQrfMbxrseSOEJ2uUg4-9">
          <mxGeometry y="78" width="160" height="92" as="geometry" />
        </mxCell>
        <mxCell id="tAQrfMbxrseSOEJ2uUg4-13" value="ItemCardapio" style="swimlane;fontStyle=1;align=center;verticalAlign=top;childLayout=stackLayout;horizontal=1;startSize=26;horizontalStack=0;resizeParent=1;resizeParentMax=0;resizeLast=0;collapsible=1;marginBottom=0;whiteSpace=wrap;html=1;" vertex="1" parent="1">
          <mxGeometry x="640" y="80" width="160" height="140" as="geometry" />
        </mxCell>
        <mxCell id="tAQrfMbxrseSOEJ2uUg4-14" value="- id: Long&lt;div&gt;- item: String&lt;/div&gt;&lt;div&gt;- preco: Float&lt;/div&gt;" style="text;strokeColor=none;fillColor=none;align=left;verticalAlign=top;spacingLeft=4;spacingRight=4;overflow=hidden;rotatable=0;points=[[0,0.5],[1,0.5]];portConstraint=eastwest;whiteSpace=wrap;html=1;" vertex="1" parent="tAQrfMbxrseSOEJ2uUg4-13">
          <mxGeometry y="26" width="160" height="54" as="geometry" />
        </mxCell>
        <mxCell id="tAQrfMbxrseSOEJ2uUg4-15" value="" style="line;strokeWidth=1;fillColor=none;align=left;verticalAlign=middle;spacingTop=-1;spacingLeft=3;spacingRight=3;rotatable=0;labelPosition=right;points=[];portConstraint=eastwest;strokeColor=inherit;" vertex="1" parent="tAQrfMbxrseSOEJ2uUg4-13">
          <mxGeometry y="80" width="160" height="8" as="geometry" />
        </mxCell>
        <mxCell id="tAQrfMbxrseSOEJ2uUg4-16" value="+ getters()&lt;div&gt;+ setters()&lt;/div&gt;&lt;div&gt;+ constructor()&lt;/div&gt;" style="text;strokeColor=none;fillColor=none;align=left;verticalAlign=top;spacingLeft=4;spacingRight=4;overflow=hidden;rotatable=0;points=[[0,0.5],[1,0.5]];portConstraint=eastwest;whiteSpace=wrap;html=1;" vertex="1" parent="tAQrfMbxrseSOEJ2uUg4-13">
          <mxGeometry y="88" width="160" height="52" as="geometry" />
        </mxCell>
        <mxCell id="tAQrfMbxrseSOEJ2uUg4-19" value="Pedido" style="swimlane;fontStyle=1;align=center;verticalAlign=top;childLayout=stackLayout;horizontal=1;startSize=26;horizontalStack=0;resizeParent=1;resizeParentMax=0;resizeLast=0;collapsible=1;marginBottom=0;whiteSpace=wrap;html=1;" vertex="1" parent="1">
          <mxGeometry x="324" y="240" width="180" height="180" as="geometry" />
        </mxCell>
        <mxCell id="tAQrfMbxrseSOEJ2uUg4-20" value="- id: Long&lt;div&gt;- cliente: Cliente&lt;/div&gt;&lt;div&gt;- garcom: Garcom&lt;br&gt;&lt;div&gt;- pedidos: List&amp;lt;ItemCardapio&amp;gt;&lt;/div&gt;&lt;div&gt;- precoTotal: Float&lt;/div&gt;&lt;/div&gt;&lt;div&gt;- status: String&lt;/div&gt;" style="text;strokeColor=none;fillColor=none;align=left;verticalAlign=top;spacingLeft=4;spacingRight=4;overflow=hidden;rotatable=0;points=[[0,0.5],[1,0.5]];portConstraint=eastwest;whiteSpace=wrap;html=1;" vertex="1" parent="tAQrfMbxrseSOEJ2uUg4-19">
          <mxGeometry y="26" width="180" height="94" as="geometry" />
        </mxCell>
        <mxCell id="tAQrfMbxrseSOEJ2uUg4-21" value="" style="line;strokeWidth=1;fillColor=none;align=left;verticalAlign=middle;spacingTop=-1;spacingLeft=3;spacingRight=3;rotatable=0;labelPosition=right;points=[];portConstraint=eastwest;strokeColor=inherit;" vertex="1" parent="tAQrfMbxrseSOEJ2uUg4-19">
          <mxGeometry y="120" width="180" height="8" as="geometry" />
        </mxCell>
        <mxCell id="tAQrfMbxrseSOEJ2uUg4-22" value="+ getters()&lt;div&gt;+ setters()&lt;/div&gt;&lt;div&gt;+ constructor()&lt;/div&gt;&lt;div&gt;&lt;br&gt;&lt;/div&gt;" style="text;strokeColor=none;fillColor=none;align=left;verticalAlign=top;spacingLeft=4;spacingRight=4;overflow=hidden;rotatable=0;points=[[0,0.5],[1,0.5]];portConstraint=eastwest;whiteSpace=wrap;html=1;" vertex="1" parent="tAQrfMbxrseSOEJ2uUg4-19">
          <mxGeometry y="128" width="180" height="52" as="geometry" />
        </mxCell>
        <mxCell id="XWT3WZr1Eq8tSHZP4D_R-7" style="rounded=0;orthogonalLoop=1;jettySize=auto;html=1;exitX=0;exitY=0.5;exitDx=0;exitDy=0;entryX=0.75;entryY=0;entryDx=0;entryDy=0;fontFamily=Helvetica;fontSize=12;fontColor=default;endArrow=none;endFill=0;" edge="1" parent="1" source="tAQrfMbxrseSOEJ2uUg4-14" target="tAQrfMbxrseSOEJ2uUg4-19">
          <mxGeometry relative="1" as="geometry" />
        </mxCell>
        <mxCell id="XWT3WZr1Eq8tSHZP4D_R-8" style="rounded=0;orthogonalLoop=1;jettySize=auto;html=1;exitX=1;exitY=0.5;exitDx=0;exitDy=0;entryX=0.25;entryY=0;entryDx=0;entryDy=0;fontFamily=Helvetica;fontSize=12;fontColor=default;endArrow=none;endFill=0;" edge="1" parent="1" source="tAQrfMbxrseSOEJ2uUg4-2" target="tAQrfMbxrseSOEJ2uUg4-19">
          <mxGeometry relative="1" as="geometry" />
        </mxCell>
        <mxCell id="XWT3WZr1Eq8tSHZP4D_R-10" style="rounded=0;orthogonalLoop=1;jettySize=auto;html=1;exitX=1;exitY=0.5;exitDx=0;exitDy=0;entryX=0;entryY=0.5;entryDx=0;entryDy=0;fontFamily=Helvetica;fontSize=12;fontColor=default;endArrow=none;endFill=0;" edge="1" parent="1" source="tAQrfMbxrseSOEJ2uUg4-10" target="tAQrfMbxrseSOEJ2uUg4-22">
          <mxGeometry relative="1" as="geometry" />
        </mxCell>
        <mxCell id="XWT3WZr1Eq8tSHZP4D_R-12" value="1" style="text;html=1;align=center;verticalAlign=middle;resizable=0;points=[];autosize=1;strokeColor=none;fillColor=none;fontFamily=Helvetica;fontSize=16;fontColor=default;" vertex="1" parent="1">
          <mxGeometry x="200" y="140" width="30" height="30" as="geometry" />
        </mxCell>
        <mxCell id="XWT3WZr1Eq8tSHZP4D_R-13" value="*" style="text;html=1;align=center;verticalAlign=middle;resizable=0;points=[];autosize=1;strokeColor=none;fillColor=none;fontFamily=Helvetica;fontSize=16;fontColor=default;" vertex="1" parent="1">
          <mxGeometry x="350" y="208" width="30" height="30" as="geometry" />
        </mxCell>
        <mxCell id="XWT3WZr1Eq8tSHZP4D_R-14" value="1" style="text;html=1;align=center;verticalAlign=middle;resizable=0;points=[];autosize=1;strokeColor=none;fillColor=none;fontFamily=Helvetica;fontSize=16;fontColor=default;" vertex="1" parent="1">
          <mxGeometry x="450" y="208" width="30" height="30" as="geometry" />
        </mxCell>
        <mxCell id="XWT3WZr1Eq8tSHZP4D_R-15" value="*" style="text;html=1;align=center;verticalAlign=middle;resizable=0;points=[];autosize=1;strokeColor=none;fillColor=none;fontFamily=Helvetica;fontSize=16;fontColor=default;" vertex="1" parent="1">
          <mxGeometry x="610" y="110" width="30" height="30" as="geometry" />
        </mxCell>
        <mxCell id="XWT3WZr1Eq8tSHZP4D_R-16" value="*" style="text;html=1;align=center;verticalAlign=middle;resizable=0;points=[];autosize=1;strokeColor=none;fillColor=none;fontFamily=Helvetica;fontSize=16;fontColor=default;" vertex="1" parent="1">
          <mxGeometry x="505" y="368" width="30" height="30" as="geometry" />
        </mxCell>
        <mxCell id="XWT3WZr1Eq8tSHZP4D_R-17" value="1" style="text;html=1;align=center;verticalAlign=middle;resizable=0;points=[];autosize=1;strokeColor=none;fillColor=none;fontFamily=Helvetica;fontSize=16;fontColor=default;" vertex="1" parent="1">
          <mxGeometry x="600" y="408" width="30" height="30" as="geometry" />
        </mxCell>
        <mxCell id="XWT3WZr1Eq8tSHZP4D_R-18" value="1" style="text;html=1;align=center;verticalAlign=middle;resizable=0;points=[];autosize=1;strokeColor=none;fillColor=none;fontFamily=Helvetica;fontSize=16;fontColor=default;" vertex="1" parent="1">
          <mxGeometry x="200" y="408" width="30" height="30" as="geometry" />
        </mxCell>
        <mxCell id="XWT3WZr1Eq8tSHZP4D_R-19" value="*" style="text;html=1;align=center;verticalAlign=middle;resizable=0;points=[];autosize=1;strokeColor=none;fillColor=none;fontFamily=Helvetica;fontSize=16;fontColor=default;" vertex="1" parent="1">
          <mxGeometry x="294" y="368" width="30" height="30" as="geometry" />
        </mxCell>
      </root>
    </mxGraphModel>
  </diagram>
  <diagram id="hT3DjRQGeqDOkTK9PK7s" name="DiagramaDeCasosDeUsos">
    <mxGraphModel dx="1393" dy="834" grid="1" gridSize="10" guides="1" tooltips="1" connect="1" arrows="1" fold="1" page="1" pageScale="1" pageWidth="827" pageHeight="1169" math="0" shadow="0">
      <root>
        <mxCell id="0" />
        <mxCell id="1" parent="0" />
        <mxCell id="IldYeMGaO582t8TnJmbD-3" style="rounded=0;orthogonalLoop=1;jettySize=auto;html=1;exitX=1;exitY=0.5;exitDx=0;exitDy=0;entryX=0;entryY=0.5;entryDx=0;entryDy=0;fontFamily=Helvetica;fontSize=12;fontColor=default;dashed=1;" edge="1" parent="1" source="Nn-nPwpbpwqXczSQcBlD-1" target="IldYeMGaO582t8TnJmbD-2">
          <mxGeometry relative="1" as="geometry" />
        </mxCell>
        <mxCell id="IldYeMGaO582t8TnJmbD-5" value="&amp;lt;include&amp;gt;" style="edgeLabel;html=1;align=center;verticalAlign=middle;resizable=0;points=[];spacingLeft=4;spacingRight=4;fontFamily=Helvetica;fontSize=12;fontColor=default;fillColor=none;gradientColor=none;" vertex="1" connectable="0" parent="IldYeMGaO582t8TnJmbD-3">
          <mxGeometry x="-0.0604" y="-2" relative="1" as="geometry">
            <mxPoint x="6" y="-8" as="offset" />
          </mxGeometry>
        </mxCell>
        <mxCell id="IldYeMGaO582t8TnJmbD-4" style="rounded=0;orthogonalLoop=1;jettySize=auto;html=1;exitX=1;exitY=0.5;exitDx=0;exitDy=0;entryX=0;entryY=0.5;entryDx=0;entryDy=0;fontFamily=Helvetica;fontSize=12;fontColor=default;dashed=1;" edge="1" parent="1" source="Nn-nPwpbpwqXczSQcBlD-1" target="IldYeMGaO582t8TnJmbD-1">
          <mxGeometry relative="1" as="geometry" />
        </mxCell>
        <mxCell id="IldYeMGaO582t8TnJmbD-6" value="&amp;lt;include&amp;gt;" style="edgeLabel;html=1;align=center;verticalAlign=middle;resizable=0;points=[];spacingLeft=4;spacingRight=4;fontFamily=Helvetica;fontSize=12;fontColor=default;fillColor=none;gradientColor=none;" vertex="1" connectable="0" parent="IldYeMGaO582t8TnJmbD-4">
          <mxGeometry x="0.071" y="2" relative="1" as="geometry">
            <mxPoint x="-2" as="offset" />
          </mxGeometry>
        </mxCell>
        <mxCell id="Nn-nPwpbpwqXczSQcBlD-1" value="Realizar Pedido" style="ellipse;whiteSpace=wrap;html=1;align=center;verticalAlign=middle;spacingLeft=4;spacingRight=4;fontFamily=Helvetica;fontSize=12;fontColor=default;fillColor=none;gradientColor=none;" vertex="1" parent="1">
          <mxGeometry x="150" y="275" width="140" height="70" as="geometry" />
        </mxCell>
        <mxCell id="Nn-nPwpbpwqXczSQcBlD-3" style="edgeStyle=orthogonalEdgeStyle;rounded=0;orthogonalLoop=1;jettySize=auto;html=1;exitX=0.5;exitY=0.5;exitDx=0;exitDy=0;exitPerimeter=0;entryX=0;entryY=0.5;entryDx=0;entryDy=0;fontFamily=Helvetica;fontSize=12;fontColor=default;" edge="1" parent="1" source="Nn-nPwpbpwqXczSQcBlD-2" target="Nn-nPwpbpwqXczSQcBlD-1">
          <mxGeometry relative="1" as="geometry" />
        </mxCell>
        <mxCell id="Nn-nPwpbpwqXczSQcBlD-2" value="Cliente" style="shape=umlActor;verticalLabelPosition=bottom;verticalAlign=top;html=1;align=center;spacingLeft=4;spacingRight=4;fontFamily=Helvetica;fontSize=12;fontColor=default;fillColor=none;gradientColor=none;" vertex="1" parent="1">
          <mxGeometry x="60" y="280" width="30" height="60" as="geometry" />
        </mxCell>
        <mxCell id="W22iwQBJxPiBhPmcwRZ6-2" style="edgeStyle=orthogonalEdgeStyle;rounded=0;orthogonalLoop=1;jettySize=auto;html=1;exitX=1;exitY=0.5;exitDx=0;exitDy=0;entryX=0;entryY=0.5;entryDx=0;entryDy=0;fontFamily=Helvetica;fontSize=12;fontColor=default;dashed=1;" edge="1" parent="1" source="IldYeMGaO582t8TnJmbD-1" target="W22iwQBJxPiBhPmcwRZ6-1">
          <mxGeometry relative="1" as="geometry" />
        </mxCell>
        <mxCell id="W22iwQBJxPiBhPmcwRZ6-3" value="&amp;lt;include&amp;gt;" style="edgeLabel;html=1;align=center;verticalAlign=middle;resizable=0;points=[];spacingLeft=4;spacingRight=4;fontFamily=Helvetica;fontSize=12;fontColor=default;fillColor=none;gradientColor=none;" vertex="1" connectable="0" parent="W22iwQBJxPiBhPmcwRZ6-2">
          <mxGeometry x="0.0909" y="1" relative="1" as="geometry">
            <mxPoint x="-2" y="1" as="offset" />
          </mxGeometry>
        </mxCell>
        <mxCell id="IldYeMGaO582t8TnJmbD-1" value="Receber pedido" style="ellipse;whiteSpace=wrap;html=1;align=center;verticalAlign=middle;spacingLeft=4;spacingRight=4;fontFamily=Helvetica;fontSize=12;fontColor=default;fillColor=none;gradientColor=none;" vertex="1" parent="1">
          <mxGeometry x="410" y="325" width="140" height="70" as="geometry" />
        </mxCell>
        <mxCell id="IldYeMGaO582t8TnJmbD-2" value="Acompanhar pedido" style="ellipse;whiteSpace=wrap;html=1;align=center;verticalAlign=middle;spacingLeft=4;spacingRight=4;fontFamily=Helvetica;fontSize=12;fontColor=default;fillColor=none;gradientColor=none;" vertex="1" parent="1">
          <mxGeometry x="410" y="225" width="140" height="70" as="geometry" />
        </mxCell>
        <mxCell id="IldYeMGaO582t8TnJmbD-7" style="rounded=0;orthogonalLoop=1;jettySize=auto;html=1;exitX=1;exitY=0.5;exitDx=0;exitDy=0;entryX=0;entryY=0.5;entryDx=0;entryDy=0;fontFamily=Helvetica;fontSize=12;fontColor=default;dashed=1;" edge="1" parent="1" source="IldYeMGaO582t8TnJmbD-11" target="IldYeMGaO582t8TnJmbD-15">
          <mxGeometry relative="1" as="geometry" />
        </mxCell>
        <mxCell id="IldYeMGaO582t8TnJmbD-8" value="&amp;lt;include&amp;gt;" style="edgeLabel;html=1;align=center;verticalAlign=middle;resizable=0;points=[];spacingLeft=4;spacingRight=4;fontFamily=Helvetica;fontSize=12;fontColor=default;fillColor=none;gradientColor=none;" vertex="1" connectable="0" parent="IldYeMGaO582t8TnJmbD-7">
          <mxGeometry x="-0.0604" y="-2" relative="1" as="geometry">
            <mxPoint x="6" y="-8" as="offset" />
          </mxGeometry>
        </mxCell>
        <mxCell id="IldYeMGaO582t8TnJmbD-9" style="rounded=0;orthogonalLoop=1;jettySize=auto;html=1;exitX=1;exitY=0.5;exitDx=0;exitDy=0;entryX=0;entryY=0.5;entryDx=0;entryDy=0;fontFamily=Helvetica;fontSize=12;fontColor=default;dashed=1;" edge="1" parent="1" source="IldYeMGaO582t8TnJmbD-11" target="IldYeMGaO582t8TnJmbD-14">
          <mxGeometry relative="1" as="geometry" />
        </mxCell>
        <mxCell id="IldYeMGaO582t8TnJmbD-10" value="&amp;lt;include&amp;gt;" style="edgeLabel;html=1;align=center;verticalAlign=middle;resizable=0;points=[];spacingLeft=4;spacingRight=4;fontFamily=Helvetica;fontSize=12;fontColor=default;fillColor=none;gradientColor=none;" vertex="1" connectable="0" parent="IldYeMGaO582t8TnJmbD-9">
          <mxGeometry x="0.071" y="2" relative="1" as="geometry">
            <mxPoint x="-2" as="offset" />
          </mxGeometry>
        </mxCell>
        <mxCell id="IldYeMGaO582t8TnJmbD-11" value="Anotar pedido do cliente" style="ellipse;whiteSpace=wrap;html=1;align=center;verticalAlign=middle;spacingLeft=4;spacingRight=4;fontFamily=Helvetica;fontSize=12;fontColor=default;fillColor=none;gradientColor=none;" vertex="1" parent="1">
          <mxGeometry x="150" y="520" width="140" height="70" as="geometry" />
        </mxCell>
        <mxCell id="IldYeMGaO582t8TnJmbD-12" style="edgeStyle=orthogonalEdgeStyle;rounded=0;orthogonalLoop=1;jettySize=auto;html=1;exitX=0.5;exitY=0.5;exitDx=0;exitDy=0;exitPerimeter=0;entryX=0;entryY=0.5;entryDx=0;entryDy=0;fontFamily=Helvetica;fontSize=12;fontColor=default;" edge="1" parent="1" source="IldYeMGaO582t8TnJmbD-13" target="IldYeMGaO582t8TnJmbD-11">
          <mxGeometry relative="1" as="geometry" />
        </mxCell>
        <mxCell id="IldYeMGaO582t8TnJmbD-13" value="Garcom" style="shape=umlActor;verticalLabelPosition=bottom;verticalAlign=top;html=1;align=center;spacingLeft=4;spacingRight=4;fontFamily=Helvetica;fontSize=12;fontColor=default;fillColor=none;gradientColor=none;" vertex="1" parent="1">
          <mxGeometry x="60" y="525" width="30" height="60" as="geometry" />
        </mxCell>
        <mxCell id="QgysCBy4L2rWc-98AUV9-1" style="edgeStyle=orthogonalEdgeStyle;rounded=0;orthogonalLoop=1;jettySize=auto;html=1;exitX=1;exitY=0.5;exitDx=0;exitDy=0;entryX=0;entryY=0.5;entryDx=0;entryDy=0;fontFamily=Helvetica;fontSize=12;fontColor=default;dashed=1;" edge="1" parent="1" source="IldYeMGaO582t8TnJmbD-14" target="W22iwQBJxPiBhPmcwRZ6-4">
          <mxGeometry relative="1" as="geometry" />
        </mxCell>
        <mxCell id="QgysCBy4L2rWc-98AUV9-4" value="&amp;lt;include&amp;gt;" style="edgeLabel;html=1;align=center;verticalAlign=middle;resizable=0;points=[];spacingLeft=4;spacingRight=4;fontFamily=Helvetica;fontSize=12;fontColor=default;fillColor=none;gradientColor=none;" vertex="1" connectable="0" parent="QgysCBy4L2rWc-98AUV9-1">
          <mxGeometry relative="1" as="geometry">
            <mxPoint as="offset" />
          </mxGeometry>
        </mxCell>
        <mxCell id="IldYeMGaO582t8TnJmbD-14" value="Entregar pedido para o cliente" style="ellipse;whiteSpace=wrap;html=1;align=center;verticalAlign=middle;spacingLeft=4;spacingRight=4;fontFamily=Helvetica;fontSize=12;fontColor=default;fillColor=none;gradientColor=none;" vertex="1" parent="1">
          <mxGeometry x="410" y="570" width="140" height="70" as="geometry" />
        </mxCell>
        <mxCell id="IldYeMGaO582t8TnJmbD-15" value="Entregar pedido do cliente para o cozinheiro" style="ellipse;whiteSpace=wrap;html=1;align=center;verticalAlign=middle;spacingLeft=4;spacingRight=4;fontFamily=Helvetica;fontSize=12;fontColor=default;fillColor=none;gradientColor=none;" vertex="1" parent="1">
          <mxGeometry x="410" y="470" width="140" height="70" as="geometry" />
        </mxCell>
        <mxCell id="W22iwQBJxPiBhPmcwRZ6-1" value="Efetuar pagamento" style="ellipse;whiteSpace=wrap;html=1;align=center;verticalAlign=middle;spacingLeft=4;spacingRight=4;fontFamily=Helvetica;fontSize=12;fontColor=default;fillColor=none;gradientColor=none;" vertex="1" parent="1">
          <mxGeometry x="627" y="325" width="140" height="70" as="geometry" />
        </mxCell>
        <mxCell id="W22iwQBJxPiBhPmcwRZ6-4" value="Atualizar status do pedido" style="ellipse;whiteSpace=wrap;html=1;align=center;verticalAlign=middle;spacingLeft=4;spacingRight=4;fontFamily=Helvetica;fontSize=12;fontColor=default;fillColor=none;gradientColor=none;" vertex="1" parent="1">
          <mxGeometry x="627" y="570" width="140" height="70" as="geometry" />
        </mxCell>
        <mxCell id="QgysCBy4L2rWc-98AUV9-5" style="rounded=0;orthogonalLoop=1;jettySize=auto;html=1;exitX=1;exitY=0.5;exitDx=0;exitDy=0;entryX=0;entryY=0.5;entryDx=0;entryDy=0;fontFamily=Helvetica;fontSize=12;fontColor=default;dashed=1;" edge="1" parent="1" source="QgysCBy4L2rWc-98AUV9-9" target="QgysCBy4L2rWc-98AUV9-15">
          <mxGeometry relative="1" as="geometry" />
        </mxCell>
        <mxCell id="QgysCBy4L2rWc-98AUV9-6" value="&amp;lt;include&amp;gt;" style="edgeLabel;html=1;align=center;verticalAlign=middle;resizable=0;points=[];spacingLeft=4;spacingRight=4;fontFamily=Helvetica;fontSize=12;fontColor=default;fillColor=none;gradientColor=none;" vertex="1" connectable="0" parent="QgysCBy4L2rWc-98AUV9-5">
          <mxGeometry x="-0.0604" y="-2" relative="1" as="geometry">
            <mxPoint x="6" y="-8" as="offset" />
          </mxGeometry>
        </mxCell>
        <mxCell id="QgysCBy4L2rWc-98AUV9-7" style="rounded=0;orthogonalLoop=1;jettySize=auto;html=1;exitX=1;exitY=0.5;exitDx=0;exitDy=0;entryX=0;entryY=0.5;entryDx=0;entryDy=0;fontFamily=Helvetica;fontSize=12;fontColor=default;dashed=1;" edge="1" parent="1" source="QgysCBy4L2rWc-98AUV9-9" target="QgysCBy4L2rWc-98AUV9-14">
          <mxGeometry relative="1" as="geometry" />
        </mxCell>
        <mxCell id="QgysCBy4L2rWc-98AUV9-8" value="&amp;lt;include&amp;gt;" style="edgeLabel;html=1;align=center;verticalAlign=middle;resizable=0;points=[];spacingLeft=4;spacingRight=4;fontFamily=Helvetica;fontSize=12;fontColor=default;fillColor=none;gradientColor=none;" vertex="1" connectable="0" parent="QgysCBy4L2rWc-98AUV9-7">
          <mxGeometry x="0.071" y="2" relative="1" as="geometry">
            <mxPoint x="-2" as="offset" />
          </mxGeometry>
        </mxCell>
        <mxCell id="QgysCBy4L2rWc-98AUV9-9" value="Receber pedido do cliente" style="ellipse;whiteSpace=wrap;html=1;align=center;verticalAlign=middle;spacingLeft=4;spacingRight=4;fontFamily=Helvetica;fontSize=12;fontColor=default;fillColor=none;gradientColor=none;" vertex="1" parent="1">
          <mxGeometry x="150" y="750" width="140" height="70" as="geometry" />
        </mxCell>
        <mxCell id="QgysCBy4L2rWc-98AUV9-10" style="edgeStyle=orthogonalEdgeStyle;rounded=0;orthogonalLoop=1;jettySize=auto;html=1;exitX=0.5;exitY=0.5;exitDx=0;exitDy=0;exitPerimeter=0;entryX=0;entryY=0.5;entryDx=0;entryDy=0;fontFamily=Helvetica;fontSize=12;fontColor=default;" edge="1" parent="1" source="QgysCBy4L2rWc-98AUV9-11" target="QgysCBy4L2rWc-98AUV9-9">
          <mxGeometry relative="1" as="geometry" />
        </mxCell>
        <mxCell id="QgysCBy4L2rWc-98AUV9-11" value="Cozinheiro" style="shape=umlActor;verticalLabelPosition=bottom;verticalAlign=top;html=1;align=center;spacingLeft=4;spacingRight=4;fontFamily=Helvetica;fontSize=12;fontColor=default;fillColor=none;gradientColor=none;" vertex="1" parent="1">
          <mxGeometry x="60" y="755" width="30" height="60" as="geometry" />
        </mxCell>
        <mxCell id="QgysCBy4L2rWc-98AUV9-12" style="edgeStyle=orthogonalEdgeStyle;rounded=0;orthogonalLoop=1;jettySize=auto;html=1;exitX=0.5;exitY=1;exitDx=0;exitDy=0;entryX=0.5;entryY=0;entryDx=0;entryDy=0;fontFamily=Helvetica;fontSize=12;fontColor=default;dashed=1;" edge="1" parent="1" source="QgysCBy4L2rWc-98AUV9-14" target="QgysCBy4L2rWc-98AUV9-16">
          <mxGeometry relative="1" as="geometry" />
        </mxCell>
        <mxCell id="QgysCBy4L2rWc-98AUV9-13" value="&amp;lt;include&amp;gt;" style="edgeLabel;html=1;align=center;verticalAlign=middle;resizable=0;points=[];spacingLeft=4;spacingRight=4;fontFamily=Helvetica;fontSize=12;fontColor=default;fillColor=none;gradientColor=none;" vertex="1" connectable="0" parent="QgysCBy4L2rWc-98AUV9-12">
          <mxGeometry relative="1" as="geometry">
            <mxPoint as="offset" />
          </mxGeometry>
        </mxCell>
        <mxCell id="4uV6Dz0LV2z2zfhZYP3C-2" style="rounded=0;orthogonalLoop=1;jettySize=auto;html=1;exitX=1;exitY=1;exitDx=0;exitDy=0;entryX=0;entryY=0.5;entryDx=0;entryDy=0;fontFamily=Helvetica;fontSize=12;fontColor=default;dashed=1;" edge="1" parent="1" source="QgysCBy4L2rWc-98AUV9-14" target="4uV6Dz0LV2z2zfhZYP3C-1">
          <mxGeometry relative="1" as="geometry" />
        </mxCell>
        <mxCell id="4uV6Dz0LV2z2zfhZYP3C-5" value="&amp;lt;include&amp;gt;" style="edgeLabel;html=1;align=center;verticalAlign=middle;resizable=0;points=[];spacingLeft=4;spacingRight=4;fontFamily=Helvetica;fontSize=12;fontColor=default;fillColor=none;gradientColor=none;" vertex="1" connectable="0" parent="4uV6Dz0LV2z2zfhZYP3C-2">
          <mxGeometry x="-0.0361" y="1" relative="1" as="geometry">
            <mxPoint y="1" as="offset" />
          </mxGeometry>
        </mxCell>
        <mxCell id="QgysCBy4L2rWc-98AUV9-14" value="Preparar pedido do cliente" style="ellipse;whiteSpace=wrap;html=1;align=center;verticalAlign=middle;spacingLeft=4;spacingRight=4;fontFamily=Helvetica;fontSize=12;fontColor=default;fillColor=none;gradientColor=none;" vertex="1" parent="1">
          <mxGeometry x="410" y="800" width="140" height="70" as="geometry" />
        </mxCell>
        <mxCell id="QgysCBy4L2rWc-98AUV9-15" value="Atualizar status do pedido" style="ellipse;whiteSpace=wrap;html=1;align=center;verticalAlign=middle;spacingLeft=4;spacingRight=4;fontFamily=Helvetica;fontSize=12;fontColor=default;fillColor=none;gradientColor=none;" vertex="1" parent="1">
          <mxGeometry x="410" y="700" width="140" height="70" as="geometry" />
        </mxCell>
        <mxCell id="QgysCBy4L2rWc-98AUV9-16" value="Atualizar status do pedido" style="ellipse;whiteSpace=wrap;html=1;align=center;verticalAlign=middle;spacingLeft=4;spacingRight=4;fontFamily=Helvetica;fontSize=12;fontColor=default;fillColor=none;gradientColor=none;" vertex="1" parent="1">
          <mxGeometry x="410" y="930" width="140" height="70" as="geometry" />
        </mxCell>
        <mxCell id="4uV6Dz0LV2z2zfhZYP3C-1" value="Entregar pedido para garçom" style="ellipse;whiteSpace=wrap;html=1;align=center;verticalAlign=middle;spacingLeft=4;spacingRight=4;fontFamily=Helvetica;fontSize=12;fontColor=default;fillColor=none;gradientColor=none;" vertex="1" parent="1">
          <mxGeometry x="590" y="880" width="140" height="70" as="geometry" />
        </mxCell>
      </root>
    </mxGraphModel>
  </diagram>
</mxfile>
